<mxfile host="app.diagrams.net" agent="Mozilla/5.0 (Macintosh; Intel Mac OS X 10_15_7) AppleWebKit/537.36 (KHTML, like Gecko) Chrome/131.0.0.0 Safari/537.36" version="26.0.9">
  <diagram name="Page-1" id="ja9XtFvne95rLbHmj2Od">
    <mxGraphModel dx="1950" dy="1979" grid="1" gridSize="10" guides="1" tooltips="1" connect="1" arrows="1" fold="1" page="1" pageScale="1" pageWidth="850" pageHeight="1100" math="0" shadow="0">
      <root>
        <mxCell id="0" />
        <mxCell id="1" parent="0" />
        <mxCell id="D01ZsNCrRtUTPk7ArrLo-1" value="&lt;span style=&quot;font-size: 18px;&quot;&gt;&lt;b&gt;Convert to fasta&lt;/b&gt;&lt;/span&gt;&lt;div&gt;&lt;b style=&quot;&quot;&gt;&lt;font color=&quot;#5c45b0&quot; style=&quot;font-size: 15px;&quot;&gt;seqtk&lt;/font&gt;&lt;/b&gt;&lt;/div&gt;" style="text;html=1;align=center;verticalAlign=middle;resizable=0;points=[];autosize=1;strokeColor=none;fillColor=none;" vertex="1" parent="1">
          <mxGeometry x="-826" y="424.19" width="160" height="50" as="geometry" />
        </mxCell>
        <mxCell id="D01ZsNCrRtUTPk7ArrLo-2" value="&lt;span style=&quot;font-size: 18px;&quot;&gt;&lt;b&gt;Read QC&lt;/b&gt;&lt;/span&gt;&lt;br&gt;&lt;div&gt;&lt;font color=&quot;#5c45b0&quot;&gt;&lt;span style=&quot;font-size: 15px;&quot;&gt;&lt;b&gt;nanoplot&lt;/b&gt;&lt;/span&gt;&lt;/font&gt;&lt;/div&gt;" style="text;html=1;align=center;verticalAlign=middle;resizable=0;points=[];autosize=1;strokeColor=none;fillColor=none;" vertex="1" parent="1">
          <mxGeometry x="-814.81" y="325" width="100" height="50" as="geometry" />
        </mxCell>
        <mxCell id="D01ZsNCrRtUTPk7ArrLo-3" value="" style="endArrow=none;html=1;rounded=1;strokeWidth=11;fontSize=12;startSize=8;endSize=8;curved=1;exitX=0.5;exitY=1;exitDx=0;exitDy=0;fillColor=#dae8fc;strokeColor=#6c8ebf;" edge="1" parent="1" target="D01ZsNCrRtUTPk7ArrLo-20">
          <mxGeometry width="50" height="50" relative="1" as="geometry">
            <mxPoint x="-643.8100000000002" y="300" as="sourcePoint" />
            <mxPoint x="-643.81" y="640" as="targetPoint" />
          </mxGeometry>
        </mxCell>
        <mxCell id="D01ZsNCrRtUTPk7ArrLo-4" value="" style="group" vertex="1" connectable="0" parent="1">
          <mxGeometry x="-681.5166666666667" y="90.99666666666666" width="60" height="66.66666666666667" as="geometry" />
        </mxCell>
        <mxCell id="D01ZsNCrRtUTPk7ArrLo-5" value="" style="shape=note;whiteSpace=wrap;html=1;backgroundOutline=1;darkOpacity=0.05;rounded=1;size=20;strokeWidth=2;" vertex="1" parent="D01ZsNCrRtUTPk7ArrLo-4">
          <mxGeometry x="3.333333333333333" width="53.33333333333333" height="66.66666666666667" as="geometry" />
        </mxCell>
        <mxCell id="D01ZsNCrRtUTPk7ArrLo-6" value="&lt;font data-font-src=&quot;https://fonts.googleapis.com/css?family=Maven+Pro&quot; face=&quot;Maven Pro&quot; color=&quot;#ffffff&quot;&gt;&lt;b&gt;&lt;font style=&quot;font-size: 20px;&quot;&gt;CSV&lt;/font&gt;&lt;/b&gt;&lt;/font&gt;" style="rounded=1;whiteSpace=wrap;html=1;strokeWidth=2;fillColor=#000000;" vertex="1" parent="D01ZsNCrRtUTPk7ArrLo-4">
          <mxGeometry y="26.666666666666668" width="60" height="26.666666666666668" as="geometry" />
        </mxCell>
        <mxCell id="D01ZsNCrRtUTPk7ArrLo-7" value="&lt;font style=&quot;font-size: 18px;&quot; face=&quot;Helvetica&quot;&gt;Samplesheet&lt;/font&gt;" style="text;html=1;align=center;verticalAlign=middle;resizable=0;points=[];autosize=1;strokeColor=none;fillColor=none;" vertex="1" parent="1">
          <mxGeometry x="-720" y="188.66333333333333" width="130" height="40" as="geometry" />
        </mxCell>
        <mxCell id="D01ZsNCrRtUTPk7ArrLo-8" value="" style="group" vertex="1" connectable="0" parent="1">
          <mxGeometry x="-583.3299999999999" y="-74.67" width="60" height="66.66666666666667" as="geometry" />
        </mxCell>
        <mxCell id="D01ZsNCrRtUTPk7ArrLo-9" value="" style="shape=note;whiteSpace=wrap;html=1;backgroundOutline=1;darkOpacity=0.05;rounded=1;size=20;strokeWidth=2;" vertex="1" parent="D01ZsNCrRtUTPk7ArrLo-8">
          <mxGeometry x="3.333333333333333" width="53.33333333333333" height="66.66666666666667" as="geometry" />
        </mxCell>
        <mxCell id="D01ZsNCrRtUTPk7ArrLo-10" value="&lt;font face=&quot;Maven Pro&quot; color=&quot;#ffffff&quot;&gt;&lt;span style=&quot;font-size: 20px;&quot;&gt;&lt;b&gt;bam&lt;/b&gt;&lt;/span&gt;&lt;/font&gt;" style="rounded=1;whiteSpace=wrap;html=1;strokeWidth=2;fillColor=#000000;" vertex="1" parent="D01ZsNCrRtUTPk7ArrLo-8">
          <mxGeometry y="26.666666666666668" width="60" height="26.666666666666668" as="geometry" />
        </mxCell>
        <mxCell id="D01ZsNCrRtUTPk7ArrLo-11" value="" style="group" vertex="1" connectable="0" parent="1">
          <mxGeometry x="-583.3299999999999" y="1.003333333333316" width="60" height="66.66666666666667" as="geometry" />
        </mxCell>
        <mxCell id="D01ZsNCrRtUTPk7ArrLo-12" value="" style="shape=note;whiteSpace=wrap;html=1;backgroundOutline=1;darkOpacity=0.05;rounded=1;size=20;strokeWidth=2;" vertex="1" parent="D01ZsNCrRtUTPk7ArrLo-11">
          <mxGeometry x="3.333333333333333" width="53.33333333333333" height="66.66666666666667" as="geometry" />
        </mxCell>
        <mxCell id="D01ZsNCrRtUTPk7ArrLo-13" value="&lt;font data-font-src=&quot;https://fonts.googleapis.com/css?family=Maven+Pro&quot; face=&quot;Maven Pro&quot; color=&quot;#ffffff&quot;&gt;&lt;b&gt;&lt;font style=&quot;font-size: 20px;&quot;&gt;fasta&lt;/font&gt;&lt;/b&gt;&lt;/font&gt;" style="rounded=1;whiteSpace=wrap;html=1;strokeWidth=2;fillColor=#000000;" vertex="1" parent="D01ZsNCrRtUTPk7ArrLo-11">
          <mxGeometry y="26.666666666666668" width="60" height="26.666666666666668" as="geometry" />
        </mxCell>
        <mxCell id="D01ZsNCrRtUTPk7ArrLo-14" value="" style="shape=curlyBracket;whiteSpace=wrap;html=1;rounded=1;labelPosition=left;verticalLabelPosition=middle;align=right;verticalAlign=middle;size=0.5;" vertex="1" parent="1">
          <mxGeometry x="-610" y="-80" width="30" height="310" as="geometry" />
        </mxCell>
        <mxCell id="D01ZsNCrRtUTPk7ArrLo-15" value="" style="group" vertex="1" connectable="0" parent="1">
          <mxGeometry x="-580" y="157.6633333333333" width="60" height="66.66666666666667" as="geometry" />
        </mxCell>
        <mxCell id="D01ZsNCrRtUTPk7ArrLo-16" value="" style="shape=note;whiteSpace=wrap;html=1;backgroundOutline=1;darkOpacity=0.05;rounded=1;size=20;strokeWidth=2;" vertex="1" parent="D01ZsNCrRtUTPk7ArrLo-15">
          <mxGeometry x="3.333333333333333" width="53.33333333333333" height="66.66666666666667" as="geometry" />
        </mxCell>
        <mxCell id="D01ZsNCrRtUTPk7ArrLo-17" value="&lt;font data-font-src=&quot;https://fonts.googleapis.com/css?family=Maven+Pro&quot; face=&quot;Maven Pro&quot; color=&quot;#ffffff&quot;&gt;&lt;b&gt;&lt;font style=&quot;font-size: 20px;&quot;&gt;chain&lt;/font&gt;&lt;/b&gt;&lt;/font&gt;" style="rounded=1;whiteSpace=wrap;html=1;strokeWidth=2;fillColor=#000000;" vertex="1" parent="D01ZsNCrRtUTPk7ArrLo-15">
          <mxGeometry y="26.666666666666668" width="60" height="26.666666666666668" as="geometry" />
        </mxCell>
        <mxCell id="D01ZsNCrRtUTPk7ArrLo-18" value="&lt;b&gt;TO&lt;/b&gt;" style="text;html=1;align=center;verticalAlign=middle;resizable=0;points=[];autosize=1;strokeColor=none;fillColor=none;" vertex="1" parent="1">
          <mxGeometry x="-573.3299999999999" y="-104" width="40" height="30" as="geometry" />
        </mxCell>
        <mxCell id="D01ZsNCrRtUTPk7ArrLo-20" value="" style="ellipse;whiteSpace=wrap;html=1;aspect=fixed;rounded=1;rotation=0;strokeWidth=5;" vertex="1" parent="1">
          <mxGeometry x="-660" y="432.9990476190476" width="32.38095238095238" height="32.38095238095238" as="geometry" />
        </mxCell>
        <mxCell id="D01ZsNCrRtUTPk7ArrLo-21" value="" style="group" vertex="1" connectable="0" parent="1">
          <mxGeometry x="-699.81" y="300.8095238095238" width="55" height="79.1904761904762" as="geometry" />
        </mxCell>
        <mxCell id="D01ZsNCrRtUTPk7ArrLo-22" value="" style="endArrow=none;html=1;rounded=1;strokeWidth=11;fontSize=12;startSize=8;endSize=8;curved=1;exitX=0.5;exitY=1;exitDx=0;exitDy=0;fillColor=#dae8fc;strokeColor=#6c8ebf;edgeStyle=orthogonalEdgeStyle;entryX=1;entryY=0.28;entryDx=0;entryDy=0;entryPerimeter=0;" edge="1" parent="D01ZsNCrRtUTPk7ArrLo-21">
          <mxGeometry width="50" height="50" relative="1" as="geometry">
            <mxPoint x="54.999999999999886" as="sourcePoint" />
            <mxPoint x="5" y="47.190476190476204" as="targetPoint" />
            <Array as="points">
              <mxPoint x="55" y="48.190476190476204" />
            </Array>
          </mxGeometry>
        </mxCell>
        <mxCell id="D01ZsNCrRtUTPk7ArrLo-23" value="" style="rounded=1;whiteSpace=wrap;html=1;strokeWidth=2;arcSize=50;fillColor=#050505;" vertex="1" parent="D01ZsNCrRtUTPk7ArrLo-21">
          <mxGeometry y="19.190476190476204" width="10" height="60" as="geometry" />
        </mxCell>
        <mxCell id="D01ZsNCrRtUTPk7ArrLo-24" value="" style="ellipse;whiteSpace=wrap;html=1;aspect=fixed;rounded=1;rotation=0;strokeWidth=5;fillColor=#999999;" vertex="1" parent="1">
          <mxGeometry x="-660" y="275.9590476190476" width="32.38095238095238" height="32.38095238095238" as="geometry" />
        </mxCell>
        <mxCell id="D01ZsNCrRtUTPk7ArrLo-25" value="&lt;b&gt;TN&lt;/b&gt;" style="text;html=1;align=center;verticalAlign=middle;resizable=0;points=[];autosize=1;strokeColor=none;fillColor=none;" vertex="1" parent="1">
          <mxGeometry x="-478.3299999999999" y="-104" width="40" height="30" as="geometry" />
        </mxCell>
        <mxCell id="D01ZsNCrRtUTPk7ArrLo-27" value="" style="group" vertex="1" connectable="0" parent="1">
          <mxGeometry x="-579.9999999999999" y="81.00333333333333" width="60" height="66.66666666666667" as="geometry" />
        </mxCell>
        <mxCell id="D01ZsNCrRtUTPk7ArrLo-28" value="" style="shape=note;whiteSpace=wrap;html=1;backgroundOutline=1;darkOpacity=0.05;rounded=1;size=20;strokeWidth=2;" vertex="1" parent="D01ZsNCrRtUTPk7ArrLo-27">
          <mxGeometry x="3.333333333333333" width="53.33333333333333" height="66.66666666666667" as="geometry" />
        </mxCell>
        <mxCell id="D01ZsNCrRtUTPk7ArrLo-29" value="&lt;font data-font-src=&quot;https://fonts.googleapis.com/css?family=Maven+Pro&quot; face=&quot;Maven Pro&quot; color=&quot;#ffffff&quot;&gt;&lt;b&gt;&lt;font style=&quot;font-size: 20px;&quot;&gt;fasta&lt;/font&gt;&lt;/b&gt;&lt;/font&gt;" style="rounded=1;whiteSpace=wrap;html=1;strokeWidth=2;fillColor=#000000;" vertex="1" parent="D01ZsNCrRtUTPk7ArrLo-27">
          <mxGeometry y="26.666666666666668" width="60" height="26.666666666666668" as="geometry" />
        </mxCell>
      </root>
    </mxGraphModel>
  </diagram>
</mxfile>
